<svg width="36" height="35" viewBox="0 0 36 35" fill="none" xmlns="http://www.w3.org/2000/svg">
<g clip-path="url(#clip0_17_543)">
<path d="M33.5488 21.9937C33.5488 23.3346 34.294 24.5063 35.4038 25.138C35.7486 25.3343 35.9668 25.6873 35.966 26.0758L35.9619 27.8217C35.9598 28.748 35.1858 29.4978 34.233 29.495L24.9207 29.4738C24.5454 29.473 24.1936 29.2889 23.9927 28.9806C23.3286 27.9613 22.1583 27.285 20.8259 27.285C19.5002 27.285 18.3347 27.9549 17.669 28.9655C17.4664 29.273 17.1138 29.4558 16.7382 29.455L1.72109 29.4201C0.768361 29.4174 -0.0028158 28.6649 7.72871e-06 27.7386L0.0119371 22.7628C0.0131371 22.275 0.352808 21.8545 0.836267 21.7241C2.41808 21.2975 3.57933 19.8876 3.57933 18.2141C3.57933 16.5467 2.42669 15.1409 0.854196 14.7087C0.37102 14.5759 0.0328313 14.1539 0.0340313 13.6658L0.0367136 12.6072C0.0388313 11.8513 0.560478 11.1895 1.31111 10.9923L21.339 5.71681C22.8714 5.31342 24.5042 5.49075 25.9072 6.21299L35.0817 10.9368C35.6479 11.2281 36.0013 11.7999 35.9999 12.4232L35.986 17.9031C35.985 18.2927 35.7645 18.6459 35.4178 18.8413C34.3002 19.4712 33.5488 20.6471 33.5488 21.9937Z" fill="url(#paint0_linear_17_543)"/>
<path d="M35.6399 11.3945C35.492 11.2081 35.3036 11.0506 35.082 10.9365L25.9076 6.21308C24.5044 5.49064 22.8714 5.31337 21.3389 5.71697L1.31096 10.9922C1.07364 11.0547 0.859331 11.1639 0.677002 11.3074L35.6399 11.3945Z" fill="url(#paint1_linear_17_543)"/>
<path d="M8.05475 27.4225C9.86278 27.4225 11.3285 25.9975 11.3285 24.2397C11.3285 22.4819 9.86278 21.0569 8.05475 21.0569C6.24671 21.0569 4.78101 22.4819 4.78101 24.2397C4.78101 25.9975 6.24671 27.4225 8.05475 27.4225Z" fill="url(#paint2_linear_17_543)"/>
<path d="M26.8563 26.0482C28.6643 26.0482 30.13 24.6232 30.13 22.8654C30.13 21.1076 28.6643 19.6826 26.8563 19.6826C25.0482 19.6826 23.5825 21.1076 23.5825 22.8654C23.5825 24.6232 25.0482 26.0482 26.8563 26.0482Z" fill="url(#paint3_linear_17_543)"/>
<path d="M15.8365 18.8458C17.1408 18.8458 18.1982 17.8178 18.1982 16.5497C18.1982 15.2816 17.1408 14.2537 15.8365 14.2537C14.5322 14.2537 13.4749 15.2816 13.4749 16.5497C13.4749 17.8178 14.5322 18.8458 15.8365 18.8458Z" fill="url(#paint4_linear_17_543)"/>
<path d="M29.6903 17.4715C30.9947 17.4715 32.052 16.4435 32.052 15.1755C32.052 13.9074 30.9947 12.8794 29.6903 12.8794C28.386 12.8794 27.3287 13.9074 27.3287 15.1755C27.3287 16.4435 28.386 17.4715 29.6903 17.4715Z" fill="url(#paint5_linear_17_543)"/>
<path d="M23.5362 13.1573C25.0491 13.1573 26.2756 11.9649 26.2756 10.4939C26.2756 9.02299 25.0491 7.83057 23.5362 7.83057C22.0232 7.83057 20.7967 9.02299 20.7967 10.4939C20.7967 11.9649 22.0232 13.1573 23.5362 13.1573Z" fill="url(#paint6_linear_17_543)"/>
<path d="M15.0552 7.37207L10.3199 8.61931C10.8217 9.1686 11.5533 9.5151 12.3684 9.5151C13.6982 9.51517 14.8063 8.59391 15.0552 7.37207Z" fill="url(#paint7_linear_17_543)"/>
<path d="M2.90323 20.301C2.41109 20.984 1.68424 21.4956 0.836267 21.7242C0.352808 21.8546 0.0131371 22.2752 0.0119371 22.763L7.72871e-06 27.7387C-0.0028158 28.6651 0.768361 29.4176 1.72109 29.4203L16.7382 29.4552C17.1138 29.4561 17.4664 29.2732 17.669 28.9657C18.3347 27.955 19.5002 27.2852 20.8259 27.2852C22.1583 27.2852 23.3286 27.9615 23.9927 28.9808C24.1935 29.2891 24.5453 29.4732 24.9206 29.474L34.2329 29.4952C35.1857 29.4979 35.9597 28.7482 35.9618 27.8219L35.9659 26.076C35.9668 25.6876 35.7485 25.3346 35.4037 25.1382C34.294 24.5064 33.5487 23.3347 33.5487 21.9939C33.5487 21.4115 33.6895 20.8612 33.9394 20.373L2.90323 20.301Z" fill="url(#paint8_linear_17_543)"/>
<path d="M26.2756 10.4939C26.2756 9.02304 25.0491 7.83057 23.5362 7.83057C22.0232 7.83057 20.7967 9.02297 20.7967 10.4939C20.7967 10.7964 20.8493 11.0869 20.9449 11.3579L26.1229 11.3708C26.2214 11.0961 26.2756 10.8012 26.2756 10.4939Z" fill="url(#paint9_linear_17_543)"/>
</g>
<defs>
<linearGradient id="paint0_linear_17_543" x1="7.72871e-06" y1="17.5001" x2="36" y2="17.5001" gradientUnits="userSpaceOnUse">
<stop stop-color="#FEE97D"/>
<stop offset="1" stop-color="#FE860A"/>
</linearGradient>
<linearGradient id="paint1_linear_17_543" x1="17.6734" y1="7.65714" x2="19.2782" y2="20.5877" gradientUnits="userSpaceOnUse">
<stop stop-color="#FE7701" stop-opacity="0"/>
<stop offset="0.398" stop-color="#E05915" stop-opacity="0.398"/>
<stop offset="1" stop-color="#AC2538"/>
</linearGradient>
<linearGradient id="paint2_linear_17_543" x1="10.67" y1="26.7823" x2="4.8312" y2="20.7767" gradientUnits="userSpaceOnUse">
<stop stop-color="#FEE97D"/>
<stop offset="1" stop-color="#FE860A"/>
</linearGradient>
<linearGradient id="paint3_linear_17_543" x1="29.4715" y1="25.408" x2="23.6327" y2="19.4024" gradientUnits="userSpaceOnUse">
<stop stop-color="#FEE97D"/>
<stop offset="1" stop-color="#FE860A"/>
</linearGradient>
<linearGradient id="paint4_linear_17_543" x1="17.7231" y1="18.3839" x2="13.5112" y2="14.0515" gradientUnits="userSpaceOnUse">
<stop stop-color="#FEE97D"/>
<stop offset="1" stop-color="#FE860A"/>
</linearGradient>
<linearGradient id="paint5_linear_17_543" x1="31.577" y1="17.0097" x2="27.3649" y2="12.6773" gradientUnits="userSpaceOnUse">
<stop stop-color="#FEE97D"/>
<stop offset="1" stop-color="#FE860A"/>
</linearGradient>
<linearGradient id="paint6_linear_17_543" x1="25.7246" y1="12.6215" x2="20.8388" y2="7.59614" gradientUnits="userSpaceOnUse">
<stop stop-color="#FEE97D"/>
<stop offset="1" stop-color="#FE860A"/>
</linearGradient>
<linearGradient id="paint7_linear_17_543" x1="14.0081" y1="9.28286" x2="11.42" y2="6.62084" gradientUnits="userSpaceOnUse">
<stop stop-color="#FEE97D"/>
<stop offset="1" stop-color="#FE860A"/>
</linearGradient>
<linearGradient id="paint8_linear_17_543" x1="17.983" y1="23.8492" x2="17.983" y2="31.6254" gradientUnits="userSpaceOnUse">
<stop stop-color="#FE7701" stop-opacity="0"/>
<stop offset="0.398" stop-color="#E05915" stop-opacity="0.398"/>
<stop offset="1" stop-color="#AC2538"/>
</linearGradient>
<linearGradient id="paint9_linear_17_543" x1="23.5362" y1="9.69298" x2="23.5362" y2="13.578" gradientUnits="userSpaceOnUse">
<stop stop-color="#FE7701" stop-opacity="0"/>
<stop offset="0.398" stop-color="#E05915" stop-opacity="0.398"/>
<stop offset="1" stop-color="#AC2538"/>
</linearGradient>
<clipPath id="clip0_17_543">
<rect width="36" height="35" fill="white"/>
</clipPath>
</defs>
</svg>
